<svg xmlns="http://www.w3.org/2000/svg" version="1.1" viewBox="-5.0 -5.0 110.0 110.0">
 <path d="m11.102 33.141 12.371 12.371c0.73047 0.73047 1.6914 1.1016 2.6484 1.1016 0.96094 0 1.9219-0.37109 2.6484-1.1016l2.1289-2.1289c1.4609-1.4609 1.4609-3.8398 0-5.3086l-2.4609-2.4609 3.9688-3.9688 4.0703 4.0703c0.28125 0.28125 0.44141 0.64844 0.44141 1.0508v48.141c0 2.1016 1.7109 3.8203 3.8203 3.8203h2.8906c2.1016 0 3.8203-1.7109 3.8203-3.8203v-49.336c0-2.4414-0.94922-4.7305-2.6797-6.4609l-16.738-16.719c-0.71875-0.71875-1.6797-1.1211-2.6992-1.1211s-1.9805 0.39844-2.6992 1.1211l-2.0391 2.0391c-0.71875 0.71875-1.1211 1.6797-1.1211 2.6992 0 1.0195 0.39844 1.9805 1.1211 2.6992l4.3711 4.3711-3.9688 3.9688-2.4609-2.4609c-0.71094-0.71094-1.6484-1.1016-2.6484-1.1016s-1.9414 0.39062-2.6484 1.1016l-2.1289 2.1289c-1.4609 1.4609-1.4609 3.8398 0 5.3086zm34.012 45.129h-5.8594v-15.52h5.8594zm-1.4883 8.1211h-2.8906c-0.82031 0-1.4883-0.67188-1.4883-1.4883v-4.3086h5.8594v4.3086c0 0.82031-0.67188 1.4883-1.4883 1.4883zm-21.816-69.262c0-0.39844 0.14844-0.76953 0.44141-1.0508l2.0391-2.0391c0.28125-0.28125 0.64844-0.44141 1.0508-0.44141 0.39844 0 0.76953 0.14844 1.0508 0.44141l16.719 16.719c1.2812 1.2812 1.9883 2.9883 1.9883 4.8086v24.859h-5.8516v-23.672c0-1.0195-0.39844-1.9805-1.1211-2.6992l-15.879-15.879c-0.28125-0.28125-0.44141-0.64844-0.44141-1.0508zm4.8086 8.7188 4.1406 4.1406-3.9688 3.9688-4.1406-4.1406zm-13.871 3.6406 2.1289-2.1289c0.26953-0.26953 0.62891-0.42188 1-0.42188s0.73828 0.14844 1.0117 0.42188l12.371 12.371c0.55078 0.55078 0.55078 1.4609 0 2.0117l-2.1289 2.1289c-0.55078 0.55078-1.4609 0.55078-2.0117 0l-12.371-12.371c-0.55078-0.55078-0.55078-1.4609 0-2.0117z"/>
 <path d="m86.77 25.699c-0.71094-0.71094-1.6484-1.1016-2.6484-1.1016s-1.9414 0.39062-2.6484 1.1016l-2.4609 2.4609-3.9688-3.9688 4.3711-4.3711c0.71875-0.71875 1.1211-1.6797 1.1211-2.6992 0-1.0195-0.39844-1.9805-1.1211-2.6992l-2.0391-2.0391c-0.71875-0.71875-1.6797-1.1211-2.6992-1.1211s-1.9805 0.39844-2.6992 1.1211l-16.719 16.719c-1.7188 1.7188-2.6719 4.0195-2.6719 6.4609v49.34c0 2.1016 1.7109 3.8203 3.8203 3.8203h2.8906c2.1016 0 3.8203-1.7109 3.8203-3.8203v-48.148c0-0.39844 0.14844-0.76953 0.42969-1.0508l4.0703-4.0703 3.9688 3.9688-2.4688 2.4688c-1.4609 1.4609-1.4609 3.8398 0 5.3086l2.1289 2.1289c0.73047 0.73047 1.6914 1.1016 2.6484 1.1016 0.96094 0 1.9219-0.37109 2.6484-1.1016l12.371-12.371c1.4609-1.4609 1.4609-3.8398 0-5.3086l-2.1289-2.1289zm-26.012 52.57h-5.8594v-15.52h5.8594zm-1.4883 8.1211h-2.8906c-0.82031 0-1.4883-0.67188-1.4883-1.4883v-4.3086h5.8594v4.3086c0 0.82031-0.67188 1.4883-1.4883 1.4883zm2.6016-52.34c-0.71875 0.71875-1.1211 1.6797-1.1211 2.6992v23.66h-5.8594v-24.859c0-1.8203 0.71094-3.5195 1.9883-4.8086l16.719-16.719c0.28125-0.28125 0.64844-0.44141 1.0508-0.44141 0.39844 0 0.76953 0.14844 1.0508 0.44141l2.0391 2.0391c0.28125 0.28125 0.44141 0.64844 0.44141 1.0508 0 0.39844-0.14844 0.76953-0.44141 1.0508l-15.879 15.879zm7.3711-4.0703 4.1406-4.1406 3.9688 3.9688-4.1406 4.1406zm18.012 1.5-12.371 12.371c-0.55078 0.55078-1.4609 0.55078-2.0117 0l-2.1289-2.1289c-0.55078-0.55078-0.55078-1.4609 0-2.0117l12.371-12.371c0.26953-0.26953 0.62891-0.42188 1-0.42188 0.37109 0 0.73828 0.14844 1.0117 0.42188l2.1289 2.1289c0.55078 0.55078 0.55078 1.4609 0 2.0117z"/>
</svg>