<svg xmlns="http://www.w3.org/2000/svg" version="1.1" viewBox="-5.0 -5.0 110.0 110.0">
 <path d="m20.934 55.973c-0.54297-0.054687-1.043 0.32812-1.1094 0.875l-3.1758 26.766c-0.13672 1.4648 1.0117 2.7344 2.4883 2.7344h5.2031l0.84766 5.8789c0.12109 0.82031 0.83594 1.4414 1.668 1.4414h7.7969c0.83203 0 1.5469-0.62109 1.6641-1.4414l0.84766-5.8789h25.66l0.84766 5.875c0.11719 0.82422 0.83594 1.4453 1.668 1.4453h7.793c0.83203 0 1.5508-0.62109 1.668-1.4414l0.84766-5.8789h5.2188c1.4766 0 2.6289-1.2852 2.4688-2.7578l-3.1719-26.742c-0.066406-0.54688-0.57422-0.93359-1.1094-0.875-0.55078 0.066406-0.94141 0.5625-0.875 1.1094l3.1719 26.734c0.03125 0.27734-0.19531 0.53125-0.48437 0.53125-25.945-0.003906-57.402 0-61.73 0-0.30469 0-0.51953-0.26953-0.49609-0.52344l3.1719-26.742c0.0625-0.54688-0.33203-1.0469-0.87891-1.1094zm13.438 35.695h-7.2461l-0.76562-5.3203h8.7812zm38.484 0h-7.2461l-0.76562-5.3203h8.7812z"/>
 <path d="m80.863 46.699h-61.746c-1.2852 0-2.332 1.0469-2.332 2.332v3.6562c0 1.2852 1.0469 2.332 2.332 2.332h61.746c1.2852 0 2.332-1.0469 2.332-2.332v-3.6562c0.003907-1.2852-1.043-2.332-2.332-2.332zm0.33594 5.9883c0 0.66406 3.2227 0.17578-62.082 0.33203-0.18359 0-0.33203-0.14844-0.33203-0.33203v-3.6562c0-0.18359 0.14844-0.33203 0.33203-0.33203 65.414 0.15625 62.082-0.31641 62.082 0.33203z"/>
 <path d="m21.324 80.629c0 0.55078 0.44922 1 1 1h55.336c0.55078 0 1-0.44922 1-1 0-0.55078-0.44922-1-1-1h-55.336c-0.55469 0-1 0.44922-1 1z"/>
 <path d="m56.336 15.652c0.55078 0 1-0.44922 1-1 0-0.55078-0.44922-1-1-1h-0.41797v-4.1953c0-1.7227-1.4023-3.125-3.125-3.125h-5.6055c-1.7227 0-3.125 1.4023-3.125 3.125v4.1953h-0.41797c-0.55078 0-1 0.44922-1 1 0 0.55078 0.44922 1 1 1h1.4961v20.617h-2.9023c-1.5664-3.5625-6.1836-14.09-8.3672-19.062l1.3828-0.60547c0.50391-0.22266 0.73438-0.8125 0.51172-1.3164-0.22266-0.50781-0.8125-0.73438-1.3164-0.51172l-0.38281 0.16797-1.6836-3.8438c-0.69922-1.5898-2.5508-2.293-4.1133-1.6055l-5.1367 2.25c-1.5859 0.69531-2.2969 2.543-1.6055 4.1133l1.6836 3.8438-0.38281 0.16797c-0.50391 0.22266-0.73438 0.8125-0.51172 1.3164 0.21875 0.5 0.80469 0.73828 1.3164 0.51172l1.3633-0.59766c0.67969 1.5508-2.4688-5.6172 6.6602 15.168h-3.4102c-0.99609 0-1.9062 0.55469-2.3281 1.4258l-2.7695 5.9219c-0.23438 0.5-0.019532 1.0938 0.48437 1.3281 0.49609 0.23047 1.0938 0.019532 1.3281-0.48438l2.7656-5.9102c0.28516-0.58594-1.6211-0.13672 44.008-0.28516 0.23828 0 0.44141 0.13281 0.50391 0.27344l2.7852 5.9219c0.23437 0.5 0.82812 0.71484 1.332 0.48047 0.5-0.23438 0.71484-0.83203 0.48047-1.332l-2.7812-5.9102c-0.39063-0.85937-1.3203-1.4336-2.3203-1.4336h-3.4062c1.5586-3.5547 5.0234-11.477 6.6445-15.176l1.3789 0.60547c0.50391 0.22266 1.0938-0.007812 1.3164-0.51562 0.22266-0.50391-0.007813-1.0938-0.51562-1.3164l-0.38281-0.16797 1.6836-3.8398c0.69141-1.5781-0.019531-3.4219-1.6055-4.1172l-5.1328-2.2422c-1.582-0.69531-3.4258 0.027343-4.1172 1.6055l-1.6836 3.8398-0.38281-0.16797c-0.50391-0.22266-1.0938 0.007813-1.3164 0.51562-0.22266 0.50391 0.007812 1.0938 0.51562 1.3164l1.3828 0.60547c-2.957 6.7383-3 6.8359-8.3672 19.062h-2.9023v-20.617zm-10.273-6.1953c0-0.62109 0.50391-1.125 1.125-1.125h5.6055c0.62109 0 1.125 0.50391 1.125 1.125v4.1953h-7.8555zm1.0781 21.891h5.6992v1.1914h-5.6992zm5.7031-2h-5.6992v-7.8359h5.6992zm-23.66-3.6875 5.2109-2.2852 3.1484 7.1758-5.2109 2.2852zm-5.8242-10.605c-0.25-0.56641 0.011719-1.2305 0.57812-1.4805l5.1367-2.25c0.56641-0.25 1.2305 0.007812 1.4766 0.57422l1.6836 3.8438c-0.21484 0.09375-7.457 3.2695-7.1914 3.1562zm8.6836 2.9531 1.5508 3.5352-5.2109 2.2852-1.5508-3.5352zm1.0977 16.66 5.2109-2.2852 1.707 3.8867h-6.2148zm32.445-11.293 5.1992 2.2812-3.1484 7.1797-5.1992-2.2852zm3.8438-11.477c0.24609-0.57031 0.90625-0.82813 1.4805-0.57813l5.1328 2.25c0.56641 0.25 0.82812 0.91406 0.57812 1.4805l-1.6836 3.8398c-0.39062-0.17188-6.9453-3.0469-7.1914-3.1562zm3.707 8.3906-1.5508 3.5352-5.1953-2.2812 1.5508-3.5352zm-11.504 12.094 5.2031 2.2812-0.69531 1.6016h-6.2109zm-14.492 3.8867v-1.7266h5.6992v1.7266zm5.7031-16.758h-5.6992v-3.8594h5.6992z"/>
 <path d="m31.363 58.758c-2.4844 0-4.5039 2.0195-4.5039 4.5039s2.0195 4.5039 4.5039 4.5039 4.5039-2.0195 4.5039-4.5039-2.0234-4.5039-4.5039-4.5039zm0 7.0078c-1.3828 0-2.5039-1.125-2.5039-2.5039 0-1.3828 1.125-2.5039 2.5039-2.5039 1.3789 0 2.5039 1.125 2.5039 2.5039 0 1.3828-1.125 2.5039-2.5039 2.5039z"/>
 <path d="m73.125 63.262c0-2.4844-2.0195-4.5039-4.5039-4.5039s-4.5039 2.0195-4.5039 4.5039 2.0195 4.5039 4.5039 4.5039 4.5039-2.0195 4.5039-4.5039zm-4.5039 2.5039c-1.3828 0-2.5039-1.125-2.5039-2.5039 0-1.3828 1.125-2.5039 2.5039-2.5039 1.3828 0 2.5039 1.125 2.5039 2.5039 0 1.3828-1.1211 2.5039-2.5039 2.5039z"/>
 <path d="m58.973 58.004h-17.961c-1.2852 0-2.332 1.0469-2.332 2.332v7.125c0 1.2852 1.0469 2.332 2.332 2.332h17.961c1.2852 0 2.332-1.0469 2.332-2.332v-7.125c0-1.2852-1.0469-2.332-2.332-2.332zm-18.297 9.4609v-7.125c0-0.18359 0.14844-0.33203 0.33203-0.33203h2.6992c0.007813 0.007813 0.007813 0.019532 0.015625 0.027344l6.4648 7.7656h-9.1797c-0.17969-0.003906-0.33203-0.15234-0.33203-0.33594zm18.629 0c0 0.18359-0.14844 0.33203-0.33203 0.33203h-6.1797l-6.4883-7.793h12.668c0.18359 0 0.33203 0.14844 0.33203 0.33203z"/>
 <path d="m53.109 61.395c-0.33984-0.42969-0.96875-0.50781-1.4062-0.16797-0.43359 0.33984-0.50781 0.96875-0.16797 1.4062l2.1719 2.7617c0.34375 0.43359 0.96875 0.50781 1.4062 0.16797 0.43359-0.33984 0.50781-0.96875 0.16797-1.4062z"/>
 <path d="m30.938 71.773c-1.2852 0-2.332 1.0469-2.332 2.332v1.6016c0 1.2852 1.0469 2.332 2.332 2.332h1.9961c1.2852 0 2.332-1.0469 2.332-2.332v-1.6016c0-1.2852-1.0469-2.332-2.332-2.332zm2.3281 2.332v1.6016c0 0.18359-0.14844 0.33203-0.33203 0.33203h-1.9961c-0.18359 0-0.33203-0.14844-0.33203-0.33203v-1.6016c0-0.18359 0.14844-0.33203 0.33203-0.33203h1.9961c0.18359 0 0.33203 0.14844 0.33203 0.33203z"/>
 <path d="m37.633 74.105v1.6016c0 1.2852 1.0469 2.332 2.332 2.332h1.9961c1.2852 0 2.332-1.0469 2.332-2.332v-1.6016c0-1.2852-1.0469-2.332-2.332-2.332h-1.9961c-1.2852 0-2.332 1.0469-2.332 2.332zm2 0c0-0.18359 0.14844-0.33203 0.33203-0.33203h1.9961c0.18359 0 0.33203 0.14844 0.33203 0.33203v1.6016c0 0.18359-0.14844 0.33203-0.33203 0.33203h-1.9961c-0.18359 0-0.33203-0.14844-0.33203-0.33203z"/>
 <path d="m48.992 71.773c-1.2852 0-2.332 1.0469-2.332 2.332v1.6016c0 1.2852 1.0469 2.332 2.332 2.332h1.9961c1.2852 0 2.332-1.0469 2.332-2.332v-1.6016c0-1.2852-1.0469-2.332-2.332-2.332zm2.3281 2.332v1.6016c0 0.18359-0.14844 0.33203-0.33203 0.33203h-1.9961c-0.18359 0-0.33203-0.14844-0.33203-0.33203v-1.6016c0-0.18359 0.14844-0.33203 0.33203-0.33203h1.9961c0.18359 0 0.33203 0.14844 0.33203 0.33203z"/>
 <path d="m58.02 71.773c-1.2852 0-2.332 1.0469-2.332 2.332v1.6016c0 1.2852 1.0469 2.332 2.332 2.332h1.9961c1.2852 0 2.332-1.0469 2.332-2.332v-1.6016c0-1.2852-1.0469-2.332-2.332-2.332zm2.3281 2.332v1.6016c0 0.18359-0.14844 0.33203-0.33203 0.33203h-1.9961c-0.18359 0-0.33203-0.14844-0.33203-0.33203v-1.6016c0-0.18359 0.14844-0.33203 0.33203-0.33203h1.9961c0.18359 0 0.33203 0.14844 0.33203 0.33203z"/>
 <path d="m67.047 71.773c-1.2852 0-2.332 1.0469-2.332 2.332v1.6016c0 1.2852 1.0469 2.332 2.332 2.332h1.9961c1.2852 0 2.332-1.0469 2.332-2.332v-1.6016c0-1.2852-1.0469-2.332-2.332-2.332zm2.332 2.332v1.6016c0 0.18359-0.14844 0.33203-0.33203 0.33203h-2c-0.18359 0-0.33203-0.14844-0.33203-0.33203v-1.6016c0-0.18359 0.14844-0.33203 0.33203-0.33203h1.9961c0.18359 0 0.33594 0.14844 0.33594 0.33203z"/>
 <path d="m78.352 24.957c-0.55078 0-1 0.44922-1 1s0.44922 1 1 1c8.375 0 12.945 2.1797 12.945 3.3008 0 1.1211-4.5703 3.3008-12.945 3.3008-0.55078 0-1 0.44922-1 1 0 0.55078 0.44922 1 1 1 19.941 0 19.957-10.602 0-10.602z"/>
 <path d="m22.629 34.559c0-0.55078-0.44922-1-1-1-8.375 0-12.945-2.1797-12.945-3.3008 0-1.1211 4.5703-3.3008 12.945-3.3008 0.55078 0 1-0.44922 1-1s-0.44922-1-1-1c-7.4258 0-14.945 1.8203-14.945 5.3008 0 3.4805 7.5195 5.3008 14.945 5.3008 0.55469 0 1-0.44531 1-1z"/>
 </svg>