<svg xmlns="http://www.w3.org/2000/svg" version="1.1" viewBox="-5.0 -5.0 110.0 110.0">
 <path d="m89.172 20.246h-78.344c-1.9453 0-3.5195 1.5781-3.5234 3.5234v52.461c0.003906 1.9453 1.582 3.5234 3.5234 3.5234h78.344c1.9453 0 3.5195-1.5781 3.5234-3.5234v-52.461c-0.003906-1.9453-1.5781-3.5234-3.5234-3.5234zm0.019531 55.988v-0.003906c0 0.011719-0.007812 0.023437-0.019531 0.023437l-78.363-0.019531 0.019531-52.488 78.363 0.019531z"/>
 <path d="m71.746 33.164h10.184c0.46875 0.003907 0.91406-0.17969 1.2461-0.50781s0.51953-0.77734 0.51953-1.2422c0-0.46875-0.1875-0.91406-0.51953-1.2422-0.33203-0.33203-0.77734-0.51172-1.2461-0.51172h-10.184c-0.46484 0-0.91406 0.17969-1.2461 0.51172-0.33203 0.32812-0.51562 0.77344-0.51562 1.2422 0 0.46484 0.18359 0.91406 0.51562 1.2422s0.78125 0.51172 1.2461 0.50781z"/>
 <path d="m71.746 47.188h10.184c0.96875 0 1.75-0.78125 1.75-1.75s-0.78125-1.75-1.75-1.75h-10.184c-0.96484 0-1.75 0.78125-1.75 1.75s0.78516 1.75 1.75 1.75z"/>
 <path d="m34.094 47.188h10.184c0.96875 0 1.75-0.78125 1.75-1.75s-0.78125-1.75-1.75-1.75h-10.184c-0.96484 0-1.75 0.78125-1.75 1.75s0.78516 1.75 1.75 1.75z"/>
 <path d="m71.746 52.207h10.184c0.96875 0 1.75-0.78125 1.75-1.75s-0.78125-1.75-1.75-1.75h-10.184c-0.96484 0-1.75 0.78125-1.75 1.75s0.78516 1.75 1.75 1.75z"/>
 <path d="m71.746 57.227h10.184c0.46875 0.003907 0.91406-0.17578 1.2461-0.50781 0.33203-0.32812 0.51953-0.77344 0.51953-1.2422 0-0.46484-0.1875-0.91406-0.51953-1.2422s-0.77734-0.51172-1.2461-0.50781h-10.184c-0.46484-0.003906-0.91406 0.17969-1.2461 0.50781s-0.51562 0.77734-0.51562 1.2422c0 0.46875 0.18359 0.91406 0.51562 1.2422 0.33203 0.33203 0.78125 0.51172 1.2461 0.50781z"/>
 <path d="m71.746 70.012h10.184c0.96875 0 1.75-0.78516 1.75-1.75 0-0.96875-0.78125-1.7539-1.75-1.7539h-10.184c-0.96484 0-1.75 0.78516-1.75 1.7539 0 0.96484 0.78516 1.75 1.75 1.75z"/>
 <path d="m52.922 65.969h10.18c0.46875 0.003906 0.91797-0.17969 1.25-0.50781 0.32813-0.33203 0.51563-0.77734 0.51563-1.2461 0-0.46484-0.1875-0.91406-0.51563-1.2422-0.33203-0.32812-0.78125-0.51172-1.25-0.50781h-10.18c-0.46875-0.003906-0.91406 0.17969-1.2461 0.50781s-0.51953 0.77734-0.51953 1.2422c0 0.46875 0.1875 0.91406 0.51953 1.2461 0.33203 0.32812 0.77734 0.51172 1.2461 0.50781z"/>
 <path d="m52.922 61.77h10.18c0.96875 0 1.7539-0.78516 1.7539-1.75 0-0.96875-0.78516-1.7539-1.7539-1.7539h-10.18c-0.96875 0-1.75 0.78516-1.75 1.7539 0 0.96484 0.78125 1.75 1.75 1.75z"/>
 <path d="m34.094 61.77h10.184c0.96875 0 1.75-0.78516 1.75-1.75 0-0.96875-0.78125-1.7539-1.75-1.7539h-10.184c-0.96484 0-1.75 0.78516-1.75 1.7539 0 0.96484 0.78516 1.75 1.75 1.75z"/>
 <path d="m34.094 52.207h10.184c0.96875 0 1.75-0.78125 1.75-1.75s-0.78125-1.75-1.75-1.75h-10.184c-0.96484 0-1.75 0.78125-1.75 1.75s0.78516 1.75 1.75 1.75z"/>
 <path d="m52.922 57.227h10.18c0.46875 0.003907 0.91797-0.17578 1.25-0.50781 0.32813-0.32812 0.51563-0.77344 0.51563-1.2422 0-0.46484-0.1875-0.91406-0.51563-1.2422-0.33203-0.32812-0.78125-0.51172-1.25-0.50781h-10.18c-0.46875-0.003906-0.91406 0.17969-1.2461 0.50781s-0.51953 0.77734-0.51953 1.2422c0 0.46875 0.1875 0.91406 0.51953 1.2422 0.33203 0.33203 0.77734 0.51172 1.2461 0.50781z"/>
 <path d="m52.922 42.098h10.18c0.96875 0 1.7539-0.78516 1.7539-1.75 0-0.96875-0.78516-1.7539-1.7539-1.7539h-10.18c-0.96875 0-1.75 0.78516-1.75 1.7539 0 0.96484 0.78125 1.75 1.75 1.75z"/>
 <path d="m52.922 33.164h10.18c0.46875 0.003907 0.91797-0.17969 1.25-0.50781 0.32813-0.32812 0.51563-0.77734 0.51563-1.2422 0-0.46875-0.1875-0.91406-0.51563-1.2422-0.33203-0.33203-0.78125-0.51172-1.25-0.51172h-10.18c-0.46875 0-0.91406 0.17969-1.2461 0.51172-0.33203 0.32812-0.51953 0.77344-0.51953 1.2422 0 0.46484 0.1875 0.91406 0.51953 1.2422s0.77734 0.51172 1.2461 0.50781z"/>
 <path d="m34.094 38.039h10.184c0.46484 0.003907 0.91406-0.17969 1.2461-0.51172 0.33203-0.32812 0.51953-0.77344 0.51953-1.2422 0-0.46484-0.1875-0.91406-0.51953-1.2422-0.33203-0.32812-0.78125-0.51172-1.2461-0.50781h-10.184c-0.46484-0.003906-0.91406 0.17969-1.2461 0.50781-0.33203 0.32812-0.51562 0.77734-0.51562 1.2422 0 0.46875 0.18359 0.91406 0.51562 1.2422 0.33203 0.33203 0.78125 0.51562 1.2461 0.51172z"/>
 <path d="m34.094 70.012h10.184c0.96875 0 1.75-0.78516 1.75-1.75 0-0.96875-0.78125-1.7539-1.75-1.7539h-10.184c-0.96484 0-1.75 0.78516-1.75 1.7539 0 0.96484 0.78516 1.75 1.75 1.75z"/>
 </svg>