<svg xmlns="http://www.w3.org/2000/svg" xmlns:xlink="http://www.w3.org/1999/xlink" version="1.1" x="0px" y="0px" viewBox="0 0 75 75" style="enable-background:new 0 0 75 75;" xml:space="preserve"><g><path d="M16.5070324,53.5092773c-2.0102549,0.1523438-4.1064463-0.6914063-5.4467783-2.2109375   c-0.1826172-0.2060547-0.4995117-0.2265625-0.7055664-0.0439453c-0.2070313,0.1826172-0.2270508,0.4990234-0.0444336,0.7060547   c1.5508947,1.7575378,3.9713144,2.7291298,6.2739267,2.5449219c0.2753906-0.0205078,0.480957-0.2607422,0.4599609-0.5361328   S16.7853527,53.4624023,16.5070324,53.5092773z"/><path d="M60.2382927,39.630127c-0.0084839-0.6352539-0.5304565-1.1433105-1.1657715-1.1347656   c-0.635376,0.0085449-1.1434326,0.5305176-1.1348877,1.1657715c0.0084839,0.6352539,0.5304565,1.1434326,1.1657715,1.1348877   S60.2468376,40.2655029,60.2382927,39.630127z"/><path d="M69.5119171,43.4946289l-0.1329346-0.0037842L60.622509,21.5424805l3.5075722-0.3320313   c1.3757019-0.1322594,2.4913712-1.1752872,2.3701172-2.4306641c-0.1079407-1.280899-1.4225998-2.0825214-2.7851601-1.9560547   l-6.2338867,0.5908203c-2.3465614,0.2372341-3.3888321-0.6063175-13.7880859-3.5019531   c-0.0615234-0.0181885-0.1234131-0.0212402-0.1835327-0.0159912c-0.2263184-1.7275391-1.2453613-3.1968994-2.6798706-4.0350342   c0.0933609-0.1770897,0.0517044-0.2722931,0.0626221-0.4196777c0-1.1748047-0.9511719-2.1298828-2.1201172-2.1298828h-1.3999023   c-1.1743164,0-2.1298828,0.9550781-2.1298828,2.1298828c0.0099792,0.1289692-0.0339851,0.2399397,0.0655518,0.4240723   c-1.4718628,0.862915-2.5101318,2.3895264-2.6952515,4.1785889c-0.3563881-0.0224543-0.1781998,0.0531187-11.9342632,6.164917   c-1.76408,0.9324913-2.4587402,0.6773853-9.1132822,1.375c-1.3425207,0.1289749-2.4947758,1.1432552-2.3701172,2.4355469   c0.1205025,1.2484474,1.4250927,2.0684624,2.7851563,1.9501953l2.4578247-0.2373047L5.8051276,47.5214844L5.4684577,47.543457   c-0.2749023,0.0185547-0.4829102,0.2558594-0.465332,0.53125c0.0278273,0.1045494,0.0042338,4.3075829,3.679687,7.5361328   c7.5446386,6.624897,19.9316406,1.0649223,19.2788086-8.8710938l-0.0102539-0.1601563   c-0.0181866-0.2888451-0.2836227-0.4963646-0.53125-0.4667969l-0.2994385,0.0195313l-9.7255859-20.6849365   c0.3600197-0.0490913,2.9878616,0.0406055,5.9200439-1.5025635c10.1126728-5.3325367,10.5273228-5.5091324,10.6906719-5.6455078   c0.3766479,0.4162598,0.8146973,0.7740479,1.302002,1.0593262c-0.126606,0.2341709-0.0365982-1.8211784-0.0654297,33.385498   c-0.7213135,0.2689209-1.2402344,0.9748535-1.2402344,1.777832v1.8798828c0,0.2763672,0.2236328,0.5,0.5,0.5s0.5-0.2236328,0.5-0.5   v-1.8798828c0-0.4560547,0.347168-0.8476563,0.7900391-0.8925781c0.0483398-0.0048828,0.0654297,0.0009766,0.1103516-0.0175781   l4.3496094,0.0009766c0.0297852,0.0078125,0.0600586,0.0136719,0.0908203,0.0175781   c0.4482422,0.0439453,0.7993164,0.4355469,0.7993164,0.8916016v6.8046875h-6.1401367v-2.4248047c0-0.2763672-0.2236328-0.5-0.5-0.5   s-0.5,0.2236328-0.5,0.5v2.4248047h-5.4267559c-1.0336914,0-1.875,0.8408203-1.875,1.875v2.6113281   c0,1.0341797,0.8413086,1.875,1.875,1.875h18.991209c1.0336914,0,1.875-0.8408203,1.875-1.875v-2.6113281   c0-1.0341797-0.8413086-1.875-1.875-1.875h-5.4243164v-6.8046875c0-0.8045654-0.5228882-1.5117188-1.25-1.779541V23.0522461   c0-0.2763672-0.2236328-0.5-0.5-0.5s-0.5,0.2236328-0.5,0.5v29.5595703H36.242382v-32.819458   c1.197052,0.4244232,2.4501495,0.4265614,3.6499023,0.0036621v0.5257568c0,0.2763672,0.2236328,0.5,0.5,0.5s0.5-0.2236328,0.5-0.5   c-0.0200996-0.6891232,0.0443993-0.7558784-0.062561-0.9587402c0.5422974-0.3164063,1.0263062-0.720459,1.4299316-1.1965332   c0.1532478,0.1170959-0.5151367-0.1293964,10.7014771,3.1748047c2.6415329,0.7767258,5.0904388,0.4359455,5.1925659,0.4348145   L47.9137688,42.8918457l-0.1318359-0.0036621c-0.2841797,0.0087891-0.5063477,0.2099609-0.5141602,0.4863281l-0.0043945,0.15625   c-0.1689453,6.0625,4.7900391,11.1376953,11.0537109,11.3134766c6.3147697,0.1661797,11.5081825-4.6494865,11.6767616-10.6806641   l0.0039063-0.15625C70.0045929,43.7319336,69.7873077,43.5024414,69.5119171,43.4946289z M13.0188723,35.6430664l0.0414429,3.28125   c-0.4597397,0.1307449-0.5038023,0.2381516-2.234436,1.2050781c-0.6367188,0.3652344-1.03125,1.0439453-1.0292969,1.7695313   c0.0499516,1.891674-0.1396141,2.1936874,0.1955566,2.9147949c-0.6041145,0.1038704-0.6356401,0.2551193-2.4235835,1.1867676   c-0.0437012,0.0230713-0.0769653,0.0588379-0.1184692,0.0847168l4.6243281-11.6713867   C12.1174908,34.937439,12.4410906,35.4397736,13.0188723,35.6430664z M26.9801769,47.1430664   c0.0145264,0.4769287-0.0170288,0.9492188-0.0725708,1.4174805c-1.381897,3.9350586-5.1394653,6.8901367-9.7371826,7.197998   c-5.0858774,0.3300781-9.5773315-2.701416-11.1098633-7.1038818c-0.0056763-0.0494385-0.0168457-0.0977783-0.0217896-0.1473389   C6.4368343,48.4897308,23.9680958,47.3402061,26.9801769,47.1430664z M12.62959,46.9975586   c0.0341797,0.0205078,0.0673828,0.0439453,0.0991211,0.0693359l-5.1611323,0.3369141   c0.0893555-0.2207031,0.2548828-0.40625,0.4736323-0.5224609C10.9259758,45.3739471,9.8441095,45.3780174,12.62959,46.9975586z    M14.4270144,46.9594727c0.0814209-0.0952148,0.1799927-0.1765137,0.2938843-0.2382813   c2.8487616-1.4806252,1.8549166-1.4696655,4.2949228-0.0644531C18.9133587,46.6634979,14.1278105,46.9792137,14.4270144,46.9594727   z M16.4342785,43.9624023c-0.0024414,0.375-0.206543,0.7236328-0.5317392,0.9101563l-1.7758789,1.0175781   c-0.3256836,0.1865234-0.7265625,0.1865234-1.0473633-0.0039063l-1.7734375-1.03125   c-0.3227539-0.1835938-0.5209961-0.5292969-0.5161133-0.90625l0.0068359-2.0488281   c-0.0009766-0.3701172,0.2006836-0.7167969,0.5263672-0.9033203l1.7758789-1.0175781   c0.3320713-0.1894684,0.7351856-0.1832199,1.0527344,0.0009766l1.7685547,1.0283203   c0.3227549,0.1884766,0.5224619,0.5371094,0.520997,0.9091797L16.4342785,43.9624023z M26.048048,46.2021484l-5.6240234,0.3664551   c-0.0172729-0.0239258-0.0310059-0.0498047-0.0493774-0.0732422c0.505209-0.0931587,0.5018063-0.2144928,2.2677002-1.1933594   c0.4799805-0.2700195,0.7799683-0.7800293,0.789978-1.3399658v-2.0400391c0-0.5500488-0.289978-1.0700684-0.7699585-1.3499756   l-1.7700195-1.0200195c-0.4799805-0.2800293-1.0700073-0.2800293-1.5499878-0.0100098   c-1.6134968,0.9675789-1.8212337,0.9608192-2.1689453,1.3647461c-0.44063-0.7783203-1.0505009-0.8634262-2.5203867-1.7919922   c-0.1864624-0.1080322-0.3875732-0.1740723-0.5928955-0.2182617l-0.0412598-3.2653809   c1.195178-0.4683189,1.2127943-2.1559486,0.0348511-2.6530762c-0.5281982-0.2229004-1.1121826-0.1015625-1.5123901,0.2574463   l3.0153809-7.6105957l0.7808847-0.0753174L26.048048,46.2021484z M21.5523205,43.9520264v-2.0300293c0-0.6650238,1-0.6584625,1,0   v2.0300293C22.5523205,44.6096344,21.5523205,44.6184731,21.5523205,43.9520264z M22.8493176,23.0600586   c-1.6464844,0.8662109-3.5195313,1.34375-5.4545898,1.3837891l-5.505372,0.5302734   c-0.8818359,0.0673828-1.6357422-0.3955078-1.6992188-1.0498047c-0.0685625-0.715847,0.6842422-1.2693539,1.4697266-1.34375   c6.543992-0.6966095,7.4695082-0.419735,9.4848642-1.4863281c4.0688114-2.1352215,11.0910892-5.8349619,11.4609966-6.0102539   c0.0740356,0.8843994,0.3590088,1.7070313,0.8029785,2.4227295L22.8493176,23.0600586z M48.4416008,63.2016602v1.9306641   c-0.2158813,0.1706543-0.4763184,0.2890625-0.7738647,0.2890625H28.4740734c-0.2974854,0-0.5578003-0.1184082-0.7736816-0.2890625   v-1.9306641c0-0.4824219,0.3925781-0.875,0.875-0.875h18.991209   C48.0490227,62.3266602,48.4416008,62.7192383,48.4416008,63.2016602z M37.3722649,8.3120117h1.3999023   c0.6124268,0,1.1087036,0.4991455,1.1171265,1.1149902c-1.1964493-0.4210396-2.4470139-0.4204321-3.6447144,0.0039063   C36.2508659,8.8131104,36.7530632,8.3120117,37.3722649,8.3120117z M35.3623161,14.6119385   c0-1.5,1.210022-2.7099609,2.710022-2.7099609s2.710022,1.2099609,2.710022,2.7099609s-1.210022,2.7199707-2.710022,2.7199707   S35.3623161,16.1119385,35.3623161,14.6119385z M48.2608757,43.9251709   c0.0261841-0.0032959,0.0499268-0.013916,0.0751343-0.0212402c7.700222,0.2148933,12.9209671,0.3605957,20.5712929,0.5740967   c0.0230713,0.0073242,0.0447998,0.0168457,0.0687866,0.020752c-0.0106201,0.1628418-0.0368042,0.321167-0.0553589,0.4816895   c-1.4885864,4.2438965-5.7065468,7.239502-10.5911903,7.1123047c-4.6998291-0.1315918-8.6159668-3.1420898-10.0134888-7.2276611   C48.2827873,44.5554199,48.2639885,44.2420654,48.2608757,43.9251709z M55.9718742,41.6206055   c-0.7301254-2.4664497,1.8982697-4.5613174,4.1342773-3.3496094c1.9021568,1.032795,2.0614548,3.7761192,0.1258545,4.9645996   l-3.12854-0.0874023C56.5418854,42.7842407,56.1546555,42.2414436,55.9718742,41.6206055z M61.7452507,43.2307129   l0.1299438,0.0507813l-0.1713867-0.0048828C61.7169914,43.2608643,61.7323112,43.2468262,61.7452507,43.2307129z    M64.4632111,43.3536377c0.001152-0.8341217-0.9260902-1.1932716-1.503849-0.7225342l-0.6826172-0.2668457   c0.3902855-0.8766594,0.4185257-1.7284317,0.1982422-2.5561523c1.8250084-0.6119881,1.7852516-0.5511093,1.9351845-0.6694336   c0.6714325,0.6164589,1.7369156,0.285759,1.8999023-0.6412354l1.9799805,4.9630127L64.4632111,43.3536377z M53.2428703,20.3823242   l-10.4014282-3.0493164c0.4113159-0.7211914,0.6602783-1.5440674,0.7062378-2.4216309l10.9569092,3.2111816   c2.4155273,0.6921215,3.6447945,0.1052036,9.3051758-0.3027344c0.7687569-0.0777721,1.6327019,0.325758,1.694828,1.0498047   c0.0687637,0.7179279-0.6882401,1.270628-1.4697266,1.3447266C58.9131317,20.5398159,56.6179161,21.3745823,53.2428703,20.3823242z    M59.3177605,21.6660156l0.2671509-0.0253906l6.2713661,15.7194824c-0.7311325-0.5232964-1.7776642-0.0698891-1.8108521,0.9023438   c-0.2049408,0.0237503,0.2430573-0.084362-1.9536171,0.6179199c-0.5686531-0.9983101-1.5289803-1.7183838-2.7953491-1.90625   c-0.1520004-1.918869-0.1000023-1.8080177-0.1759644-1.9760742c1.1286125-0.7431183,0.3008499-2.4368896-0.9562378-2.0639648   c-1.0946388,0.3245163-1.1240196,1.8778763,0.0184326,2.2053223c-0.0260544,0.2002563-0.0227242-0.2546501,0.1100845,1.8149414   c-0.9347191,0.1089706-1.7224541,0.5002441-2.3840103,1.211792c-1.3243942-1.026062-1.2706566-1.0376358-1.4423828-1.0921631   c0.1506882-1.2249718-1.5053978-1.6761665-2.0258179-0.5992432c-0.4512177,0.9337196,0.5496101,1.9279022,1.4970093,1.3846436   c0.1298485,0.1569595-0.1750603-0.1311111,1.3787231,1.1130371c-0.7299347,1.3631859-0.5426636,2.9562035,0.2097778,4.0065918   c0.0310669,0.0466309,0.0747681,0.0831299,0.1080322,0.1281738l-6.6245728-0.1848145L59.3177605,21.6660156z"/><path d="M40.174511,59.8637695v-4.453125c0-0.2763672-0.2236328-0.5-0.5-0.5s-0.5,0.2236328-0.5,0.5v4.453125   c0,0.2763672,0.2236328,0.5,0.5,0.5S40.174511,60.1401367,40.174511,59.8637695z"/><path d="M59.030468,50.387207c2.298645,0.1838913,4.7203064-0.7843437,6.2744179-2.5449219   c0.1826172-0.2070313,0.1630859-0.5234375-0.0444336-0.7060547c-0.2060547-0.1826172-0.5219727-0.1621094-0.7055664,0.0439453   c-1.3403358,1.5185547-3.4277382,2.3623047-5.4472694,2.2109375c-0.2856445-0.0439453-0.5161133,0.1845703-0.5371094,0.4599609   S58.7550774,50.3666992,59.030468,50.387207z"/></g></svg>