<svg xmlns="http://www.w3.org/2000/svg" xmlns:xlink="http://www.w3.org/1999/xlink" version="1.1" x="0px" y="0px" viewBox="0 0 100 100" enable-background="new 0 0 100 100" xml:space="preserve"><g><g><g><path stroke="#000000" stroke-width="0.2957" d="M20.687,47.657c-0.869,0-1.687-0.328-2.314-0.952     c-0.609-0.613-0.957-1.43-0.957-2.315c0-0.854,0.348-1.706,0.957-2.313c1.216-1.218,3.407-1.218,4.625,0.015     c0.61,0.592,0.958,1.444,0.958,2.298c0,0.886-0.33,1.702-0.958,2.315C22.39,47.329,21.557,47.657,20.687,47.657z"/></g><g><path stroke="#000000" stroke-width="0.2957" d="M59.922,58.2c-1.567-0.906-2.122-2.905-1.235-4.471h0.017     c0.21-0.363,0.47-0.679,0.801-0.938l0,0c-0.331-0.104-0.628-0.262-0.906-0.487h-0.017c-0.956-0.73-1.391-1.897-1.252-3.011l0,0     c-0.729,1.029-2.018,1.566-3.338,1.286l0,0c-1.428-0.295-2.453-1.511-2.574-2.902l0,0c-0.489,1.358-1.845,2.262-3.357,2.123l0,0     c-1.756-0.139-3.061-1.651-2.975-3.39l0,0c-0.382,0.296-0.815,0.501-1.321,0.623l0,0c-1.756,0.384-3.511-0.729-3.895-2.503l0,0     c-0.382-1.758,0.731-3.497,2.487-3.897l0,0c0.015,0,0.034,0,0.034,0l0,0c-1.322-0.347-2.332-1.495-2.453-2.922l0,0     c-0.085-1.199,0.488-2.296,1.409-2.938l0,0c-1.147,0.086-2.293-0.417-2.97-1.426l0,0c-0.731-1.097-0.731-2.469-0.09-3.514l0,0     c-0.99,0.576-2.242,0.626-3.304,0.019l0,0c-0.085-0.072-0.19-0.124-0.277-0.194l0,0c-0.07,0.366-0.209,0.734-0.417,1.081l0,0     c-0.73,1.27-2.192,1.844-3.548,1.528l0,0c1.165,0.907,1.6,2.541,0.956,3.951l0,0C31,37.71,29.31,38.44,27.782,37.972l0,0     c1.234,1.115,1.443,3.026,0.416,4.383l0,0c-1.094,1.443-3.147,1.74-4.59,0.662l0,0c-1.443-1.096-1.723-3.148-0.643-4.593l0,0     c0.849-1.13,2.293-1.548,3.564-1.165l0,0c-1.026-0.939-1.39-2.453-0.765-3.79l0,0c0.659-1.427,2.226-2.157,3.703-1.811l0,0     c-1.286-0.993-1.65-2.816-0.799-4.244l0,0l0,0l0,0c0.903-1.548,2.922-2.067,4.468-1.147l0,0c0.086,0.051,0.176,0.105,0.263,0.156     l0,0c0.068-0.346,0.19-0.713,0.381-1.042l0,0c0.902-1.567,2.905-2.106,4.471-1.199l0,0c1.564,0.903,2.104,2.903,1.197,4.469l0,0     c-0.015,0.018-0.015,0.035-0.032,0.052l0,0c1.478-0.87,3.408-0.452,4.381,0.991l0,0c0.992,1.478,0.609,3.496-0.852,4.505l0,0     c0,0,0,0,0.019,0l0,0c1.792-0.14,3.375,1.215,3.494,3.026l0,0c0.14,1.652-1.008,3.111-2.591,3.441l0,0     c1.167,0.295,2.122,1.22,2.383,2.47l0,0c0.069,0.278,0.089,0.557,0.089,0.835l0,0c0.625-0.486,1.423-0.764,2.293-0.676l0,0     c1.601,0.14,2.835,1.406,2.974,2.954l0,0c0.557-1.493,2.141-2.418,3.757-2.068l0,0l0,0l0,0c1.669,0.365,2.782,1.948,2.557,3.617     l0,0c0.02-0.019,0.037-0.051,0.052-0.068l0,0c1.097-1.444,3.149-1.723,4.592-0.629l0,0c1.426,1.098,1.705,3.15,0.608,4.592l0,0     c-0.155,0.209-0.347,0.402-0.557,0.575l0,0c0.175,0.052,0.366,0.139,0.541,0.244l0,0c1.562,0.886,2.119,2.889,1.216,4.452l0,0     c-0.592,1.061-1.705,1.653-2.836,1.653l0,0C60.984,58.618,60.426,58.495,59.922,58.2z"/></g><g><path stroke="#000000" stroke-width="0.2957" d="M57.155,63.365c-0.87,0-1.704-0.351-2.312-0.958     c-0.608-0.623-0.955-1.444-0.955-2.313c0-0.868,0.347-1.705,0.955-2.314c1.2-1.215,3.409-1.23,4.625,0     c0.61,0.609,0.959,1.446,0.959,2.314c0,0.869-0.331,1.69-0.959,2.313C58.86,63.014,58.025,63.365,57.155,63.365z"/></g></g><g><path stroke="#010202" stroke-width="0.3106" d="M82.114,73.345c-0.749-1.651-0.018-3.581,1.635-4.327l0,0    c0.73-0.331,1.529-0.368,2.242-0.16l0,0c-0.556-0.676-0.851-1.599-0.729-2.537l0,0c0.191-1.376,1.2-2.418,2.47-2.732l0,0    c-1.356-0.032-2.591-0.901-3.044-2.278h0.018c-0.471-1.422,0.121-2.955,1.322-3.734l0,0c-1.443,0.589-3.163,0.066-4.018-1.306l0,0    c-0.941-1.551-0.471-3.566,1.079-4.505l0,0c0.276-0.177,0.589-0.315,0.902-0.384l0,0c-0.154-0.089-0.294-0.19-0.415-0.297l0,0    c-1.393-1.164-1.566-3.233-0.401-4.625v0.016c1.166-1.391,3.235-1.563,4.608-0.4l0,0c1.39,1.164,1.567,3.217,0.401,4.609l0,0    c-0.453,0.542-1.044,0.904-1.688,1.061l0,0c0.436,0.261,0.799,0.628,1.077,1.08l0,0l0,0l0,0c0.94,1.512,0.487,3.493-0.993,4.468    l0,0c0.072-0.035,0.142-0.069,0.228-0.084l0,0c1.723-0.56,3.566,0.382,4.121,2.104l0,0l0,0l0,0    c0.54,1.719-0.398,3.562-2.118,4.122l0,0c-0.072,0.015-0.159,0.049-0.228,0.071l0,0c0.123,0,0.245,0,0.384,0.032l0,0    c1.773,0.242,3.024,1.896,2.782,3.669l0,0c-0.244,1.788-1.897,3.043-3.688,2.799l0,0c-0.156-0.018-0.312-0.05-0.451-0.102l0,0    c0.173,0.225,0.348,0.487,0.469,0.765l0,0c0.732,1.633,0,3.581-1.635,4.312l0,0l0,0l0,0c-0.453,0.19-0.903,0.297-1.356,0.297l0,0    C83.853,75.279,82.652,74.565,82.114,73.345z M88.042,46.303c-1.199-1.356-1.059-3.409,0.278-4.607l0,0    c0.905-0.802,2.106-1.008,3.166-0.664l0,0c-0.468-0.522-0.782-1.216-0.834-1.965l0,0c-0.069-0.888,0.227-1.703,0.747-2.331l0,0    c-1.025,0.452-2.261,0.384-3.252-0.33l0,0c-1.216-0.888-1.651-2.435-1.148-3.775l0,0c-0.763,1.237-2.277,1.862-3.738,1.427l0,0    c-1.461-0.435-2.384-1.793-2.332-3.234l0,0c-0.329,1.389-1.546,2.449-3.044,2.521l0,0c-1.337,0.066-2.52-0.68-3.077-1.81l0,0    c0.156,1.185-0.346,2.401-1.391,3.114l0,0c-1.479,1.042-3.514,0.658-4.542-0.818l0,0c-1.022-1.495-0.658-3.529,0.837-4.556l0,0    c1.479-1.025,3.513-0.644,4.539,0.836l0,0c0.104,0.14,0.176,0.257,0.245,0.398l0,0c-0.018-0.085-0.018-0.19-0.018-0.28l0,0    c-0.089-1.806,1.305-3.339,3.112-3.424l0,0c0,0,0,0,0,0.017l0,0c1.81-0.088,3.321,1.305,3.408,3.111l0,0    c0.02,0.088,0.02,0.177,0.02,0.261l0,0c0-0.066,0.017-0.139,0.049-0.206l0,0c0.508-1.723,2.332-2.715,4.072-2.191l0,0l0,0l0,0    c1.721,0.502,2.713,2.331,2.19,4.069l0,0c-0.018,0.068-0.035,0.139-0.069,0.19l0,0c0.052-0.069,0.104-0.14,0.156-0.228l0,0    c1.062-1.461,3.097-1.79,4.559-0.73l0,0c1.46,1.062,1.807,3.115,0.748,4.558l0,0c-0.055,0.068-0.106,0.14-0.159,0.192l0,0    c0.35-0.158,0.73-0.263,1.112-0.281l0,0c1.812-0.122,3.375,1.22,3.497,3.028l0,0l0,0l0,0c0.139,1.81-1.218,3.373-3.025,3.494l0,0    c-0.435,0.039-0.854-0.015-1.234-0.155l0,0c0,0.016,0.015,0.034,0.034,0.034l0,0c1.182,1.358,1.06,3.427-0.297,4.628l0,0l0,0l0,0    c-0.624,0.541-1.389,0.817-2.156,0.817l0,0C89.59,47.416,88.687,47.032,88.042,46.303z" fill="#000000"/></g><g><path stroke="#010202" stroke-width="0.3106" d="M59.347,88.288c-1.757-0.473-2.782-2.277-2.295-4.02l0,0    c0.035-0.122,0.069-0.243,0.121-0.366l0,0c-0.019,0.04-0.052,0.089-0.086,0.123l0,0c-1.008,1.496-3.061,1.877-4.54,0.852l0,0    c-1.497-1.024-1.879-3.062-0.853-4.536l0,0c1.027-1.498,3.062-1.877,4.557-0.853l0,0c1.287,0.885,1.739,2.52,1.183,3.929l0,0    c0.729-1.198,2.21-1.827,3.634-1.443l0,0c0.541,0.156,1.01,0.436,1.376,0.78l0,0c0.034-0.379,0.14-0.762,0.313-1.146l0,0    c0.713-1.46,2.347-2.155,3.861-1.72l0,0c-1.497-0.592-2.386-2.211-1.982-3.827l0,0c0.433-1.755,2.208-2.816,3.963-2.383l0,0    c1.758,0.418,2.819,2.19,2.384,3.947l0,0c-0.419,1.755-2.191,2.816-3.948,2.401l0,0c-0.052-0.019-0.086-0.038-0.14-0.038l0,0    c0.07,0.02,0.156,0.058,0.226,0.09l0,0c1.634,0.781,2.315,2.748,1.53,4.365l0,0c-0.783,1.634-2.729,2.315-4.363,1.531l0,0    c-0.315-0.139-0.59-0.35-0.817-0.556l0,0c-0.017,0.188-0.053,0.379-0.106,0.572l0,0c-0.397,1.46-1.722,2.415-3.165,2.415l0,0    C59.922,88.406,59.625,88.374,59.347,88.288z M47.071,80.478c-1.324-1.235-1.395-3.304-0.16-4.628l0,0    c1.218-1.319,3.287-1.408,4.61-0.171l0,0l0,0l0,0c1.321,1.216,1.41,3.284,0.174,4.623l0,0c-0.645,0.696-1.514,1.045-2.398,1.045    l0,0C48.495,81.347,47.711,81.053,47.071,80.478z M42.165,74.999c-0.573-0.903-0.662-1.982-0.312-2.901l0,0    c-0.75,0.485-1.672,0.693-2.608,0.466l0,0c-1.518-0.346-2.524-1.703-2.505-3.2l0,0c-0.243,1.535-1.567,2.734-3.167,2.767l0,0    c-1.72,0.032-3.165-1.27-3.319-2.954l0,0c0.085,1.702-1.168,3.217-2.87,3.422l0,0c-1.81,0.229-3.428-1.06-3.653-2.851l0,0    c-0.21-1.79,1.06-3.426,2.851-3.634l0,0c1.811-0.21,3.427,1.06,3.653,2.851l0,0c0,0.032,0,0.055,0,0.09l0,0    c0-0.058,0-0.09,0-0.123l0,0c-0.036-1.812,1.39-3.305,3.199-3.342l0,0c1.81-0.032,3.307,1.396,3.34,3.203l0,0    c0,0.033,0,0.066,0,0.104l0,0c0.019-0.087,0.036-0.173,0.053-0.263l0,0c0.416-1.755,2.172-2.834,3.93-2.418l0,0c0,0,0,0,0-0.016    l0,0c1.756,0.419,2.853,2.188,2.436,3.948l0,0c-0.034,0.121-0.07,0.245-0.122,0.367l0,0c0.016,0,0.051-0.021,0.069-0.037l0,0    c1.514-0.974,3.547-0.538,4.522,0.972l0,0c0.973,1.518,0.539,3.55-0.976,4.524l0,0c-0.557,0.347-1.165,0.522-1.772,0.522l0,0    C43.833,76.496,42.79,75.973,42.165,74.999z M68.514,73.639c-1.774-0.346-2.94-2.068-2.593-3.823l0,0    c0.348-1.774,2.07-2.938,3.844-2.592l0,0c1.773,0.349,2.923,2.069,2.574,3.827l0,0c-0.296,1.563-1.669,2.662-3.201,2.662l0,0    C68.931,73.713,68.722,73.677,68.514,73.639z" fill="#000000"/></g><g><path stroke="#010202" stroke-width="0.3106" d="M75.193,44.478L75.193,44.478L75.193,44.478    c-1.793-0.229-3.062-1.861-2.835-3.653l0,0c0.226-1.793,1.859-3.063,3.651-2.836l0,0c1.792,0.229,3.062,1.862,2.836,3.653l0,0    c-0.21,1.653-1.617,2.854-3.236,2.854l0,0C75.47,44.495,75.331,44.495,75.193,44.478z M68.409,43.24    c-1.755-0.4-2.853-2.156-2.453-3.912l0,0c0.403-1.757,2.158-2.851,3.915-2.453l0,0c1.756,0.4,2.853,2.14,2.453,3.913l0,0    c-0.349,1.515-1.688,2.541-3.186,2.541l0,0C68.895,43.329,68.651,43.295,68.409,43.24z M61.696,41.293    c-1.688-0.645-2.539-2.541-1.913-4.225l0,0c0.035-0.055,0.053-0.088,0.069-0.139l0,0c-0.122,0.156-0.262,0.312-0.417,0.452l0,0    c-1.355,1.183-3.426,1.042-4.627-0.295l0,0c-1.183-1.359-1.06-3.427,0.295-4.627l0,0c0.312-0.278,0.663-0.469,1.01-0.607l0,0    c-1.495-0.923-2.001-2.853-1.132-4.402l0,0c0.47-0.814,1.22-1.355,2.071-1.565l0,0c-0.768-0.275-1.425-0.833-1.811-1.635l0,0l0,0    l0,0c-0.556-1.093-0.417-2.363,0.246-3.305l0,0c-1.01,0.73-2.402,0.854-3.566,0.176l0,0l0,0l0,0    c-1.564-0.906-2.087-2.903-1.183-4.47l0,0c0.901-1.566,2.905-2.088,4.47-1.181l0,0c1.565,0.903,2.086,2.903,1.183,4.466l0,0    c-0.051,0.088-0.088,0.156-0.14,0.228l0,0c0.14-0.105,0.313-0.208,0.47-0.278l0,0c1.634-0.799,3.582-0.14,4.384,1.477l0,0    c0.798,1.618,0.139,3.583-1.48,4.382l0,0c-0.225,0.106-0.451,0.193-0.676,0.245l0,0c0.174,0.055,0.33,0.139,0.486,0.227l0,0    c1.581,0.887,2.122,2.887,1.234,4.45l0,0c-0.383,0.697-1.01,1.203-1.703,1.466l0,0c0.278,0.155,0.538,0.362,0.764,0.624l0,0    c0.853,0.993,1.026,2.33,0.54,3.462l0,0c0.853-1.097,2.364-1.566,3.737-1.043l0,0c1.688,0.626,2.54,2.521,1.898,4.209l0,0    c-0.488,1.306-1.739,2.119-3.062,2.119l0,0C62.46,41.501,62.078,41.433,61.696,41.293z" fill="#000000"/></g><g><path stroke="#010202" stroke-width="0.3106" d="M13.956,58.858c0-0.05,0-0.104,0-0.136l0,0c-0.019,0.102-0.036,0.208-0.051,0.312    l0,0c-0.385,1.773-2.123,2.888-3.897,2.504l0,0c-1.755-0.401-2.887-2.141-2.503-3.896l0,0c0.034-0.14,0.068-0.262,0.121-0.384l0,0    c-0.348,0.177-0.713,0.296-1.112,0.35l0,0c-1.791,0.243-3.445-1.027-3.67-2.819l0,0c-0.225-1.791,1.026-3.423,2.817-3.651l0,0    c0.189-0.034,0.382-0.034,0.574-0.034l0,0c-0.053-0.019-0.124-0.034-0.173-0.051l0,0c-1.704-0.63-2.558-2.522-1.931-4.208l0,0    c0,0,0,0-0.019,0l0,0c0.626-1.69,2.523-2.561,4.208-1.932l0,0c0.073,0.017,0.158,0.05,0.227,0.086l0,0    c-0.032-0.018-0.069-0.036-0.086-0.052l0,0c-1.529-0.976-1.966-2.994-0.991-4.504l0,0c0.575-0.92,1.53-1.443,2.539-1.515l0,0    c-0.122-0.102-0.226-0.207-0.329-0.313l0,0l0,0l0,0c-0.958-1.025-1.132-2.485-0.573-3.668l0,0    c-0.296,0.087-0.628,0.139-0.959,0.139l0,0c-1.807,0.017-3.286-1.443-3.286-3.253l0,0l0,0l0,0c0-1.808,1.461-3.268,3.271-3.285    l0,0c0.156,0,0.311,0.017,0.487,0.034l0,0c-0.072-0.017-0.123-0.034-0.176-0.068l0,0c-1.65-0.713-2.416-2.629-1.704-4.297l0,0l0,0    l0,0c0.713-1.65,2.646-2.417,4.297-1.704l0,0c0.069,0.034,0.139,0.071,0.208,0.104l0,0c-0.053-0.034-0.121-0.071-0.175-0.122l0,0    c-1.494-1.01-1.878-3.045-0.87-4.539l0,0l0,0l0,0c1.01-1.497,3.043-1.877,4.541-0.869l0,0c0.052,0.034,0.104,0.085,0.158,0.123    l0,0c-0.088-0.089-0.158-0.177-0.244-0.261l0,0c-1.132-1.411-0.939-3.463,0.469-4.611l0,0c1.392-1.147,3.443-0.941,4.591,0.469    l0,0c1.149,1.394,0.938,3.446-0.45,4.594l0,0c-1.202,0.974-2.889,0.974-4.07,0.068l0,0c1.114,1.08,1.321,2.836,0.416,4.173l0,0    c-0.94,1.376-2.747,1.811-4.191,1.06l0,0c1.39,0.836,1.983,2.576,1.322,4.107v0.017c-0.591,1.372-2.052,2.14-3.478,1.93l0,0    c1.251,0.452,2.139,1.655,2.139,3.061l0,0c0,0.506-0.105,0.991-0.332,1.426l0,0c1.166-0.346,2.488-0.05,3.375,0.887l0,0    c1.234,1.321,1.165,3.394-0.158,4.626l0,0c-0.572,0.541-1.287,0.836-2.033,0.887l0,0c1.303,1.026,1.636,2.887,0.713,4.313h0.017    c-0.886,1.394-2.66,1.881-4.104,1.22l0,0c1.32,0.78,1.932,2.436,1.375,3.929l0,0c-0.507,1.375-1.829,2.208-3.219,2.141l0,0    c1.182,0.363,2.121,1.392,2.294,2.714l0,0c0.072,0.518,0,1.025-0.156,1.493l0,0c0.663-0.346,1.444-0.484,2.228-0.31l0,0    c1.513,0.327,2.557,1.648,2.573,3.126l0,0c0.192-1.543,1.443-2.781,3.042-2.865l0,0c1.81-0.124,3.358,1.249,3.478,3.059l0,0    c0.106,1.81-1.269,3.356-3.077,3.463l0,0c-0.071,0-0.122,0.015-0.19,0.015l0,0C15.503,61.937,14.059,60.597,13.956,58.858z     M20.493,58.424c-0.312-1.791,0.889-3.479,2.681-3.773l0,0c1.773-0.313,3.461,0.888,3.773,2.68l0,0    c0.296,1.772-0.904,3.46-2.678,3.773l0,0l0,0l0,0c-0.192,0.033-0.365,0.033-0.539,0.033l0,0    C22.147,61.137,20.771,60.027,20.493,58.424z M26.947,57.312c-0.417-1.755,0.679-3.532,2.436-3.946l0,0    c1.757-0.418,3.512,0.676,3.932,2.433l0,0c0.416,1.756-0.664,3.515-2.42,3.928l0,0c-0.262,0.072-0.521,0.09-0.763,0.09l0,0    C28.651,59.816,27.312,58.808,26.947,57.312z M33.346,55.833c-0.54-1.737,0.419-3.565,2.159-4.105l0,0    c1.721-0.521,3.548,0.435,4.084,2.156l0,0c0.541,1.724-0.433,3.568-2.156,4.104l0,0c-0.314,0.087-0.642,0.137-0.973,0.137l0,0    C35.069,58.125,33.782,57.224,33.346,55.833z" fill="#ff6e6e"/></g></g></svg>