<svg xmlns="http://www.w3.org/2000/svg" version="1.1" viewBox="-5.0 -5.0 110.0 110.0">
 <path d="m28.145 27.004c-3.0625 0.003906-5.5469 2.4883-5.5508 5.5547v9.5859c0.003906 3.0664 2.4883 5.5508 5.5508 5.5547h26.488c3.0664-0.003907 5.5508-2.4883 5.5547-5.5547v-9.5859c-0.003906-3.0664-2.4883-5.5508-5.5547-5.5547zm28.918 5.5547v9.5859c-0.003906 1.3398-1.0898 2.4258-2.4297 2.4297h-26.488c-1.3398-0.003907-2.4258-1.0898-2.4258-2.4297v-9.5859c0-1.3398 1.0859-2.4297 2.4258-2.4297h26.488c1.3398 0 2.4258 1.0898 2.4297 2.4297z"/>
 <path d="m28.984 59.801c5.9883-0.027343 5.9883-9.8164 0-9.8438-1.3242-0.21875-2.6758 0.14844-3.7109 1.0039-1.0312 0.85547-1.6406 2.1172-1.6719 3.457-0.24609 1.4883 0.24219 3.0078 1.3086 4.0742 1.0664 1.0664 2.5859 1.5547 4.0742 1.3086zm-2.2578-4.4609c-0.070312-1.043 0.023438-2.2031 1.3359-2.2578 1.0391-0.070312 2.2031 0.023438 2.2578 1.3359 0.070313 1.0391-0.023437 2.2031-1.3359 2.2578-1.0391 0.070313-2.1992-0.023437-2.2578-1.332z"/>
 <path d="m42.102 59.801c5.9883-0.027343 5.9883-9.8164 0-9.8438-1.3242-0.21875-2.6758 0.14844-3.7109 1.0039-1.0312 0.85547-1.6406 2.1172-1.6719 3.457-0.24609 1.4883 0.24219 3.0078 1.3086 4.0742 1.0664 1.0664 2.5859 1.5547 4.0742 1.3086zm-2.2578-4.4609c-0.070312-1.043 0.023438-2.2031 1.3359-2.2578 1.0391-0.070312 2.1992 0.023438 2.2578 1.3359 0.070312 1.0391-0.023438 2.2031-1.3359 2.2578-1.043 0.070313-2.1992-0.023437-2.2578-1.332z"/>
 <path d="m55.219 49.957c-1.4883-0.24219-3.0078 0.24609-4.0742 1.3125-1.0664 1.0664-1.5547 2.582-1.3086 4.0742 0.03125 1.3398 0.64062 2.6016 1.6719 3.457 1.0352 0.85547 2.3867 1.2227 3.7109 1 5.9883-0.027343 5.9883-9.8125 0-9.8438zm1.3359 5.3828c-0.058594 1.3086-1.2188 1.4062-2.2578 1.3359-1.3086-0.058593-1.4062-1.2188-1.3359-2.2578 0.058593-1.3086 1.2188-1.4062 2.2578-1.3359 1.3086 0.058594 1.4062 1.2188 1.3359 2.2617z"/>
 <path d="m39.172 31.27h-5.8477c-0.85938 0-1.5625 0.69922-1.5625 1.5625v9.6406c0.019531 0.85156 0.71484 1.5312 1.5625 1.5312 0.85156 0 1.5469-0.67969 1.5625-1.5312v-2.918h4.2852c0.85938 0 1.5625-0.69922 1.5625-1.5625v-5.1602c0-0.86328-0.70312-1.5625-1.5625-1.5625zm-1.5625 5.1602h-2.7227v-2.0352h2.7188z"/>
 <path d="m49.953 31.27c-0.86328 0-1.5625 0.69922-1.5625 1.5625v2.957h-3.293v-2.957c0-0.86328-0.70312-1.5625-1.5625-1.5625-0.86328 0-1.5625 0.69922-1.5625 1.5625v8.8867c0.015625 0.85156 0.71094 1.5312 1.5625 1.5312 0.84766 0 1.543-0.67969 1.5625-1.5312v-2.8047h3.2969v2.8047h-0.003906c0.015625 0.85156 0.71094 1.5312 1.5625 1.5312s1.5469-0.67969 1.5625-1.5312v-8.8867c0-0.86328-0.69922-1.5625-1.5625-1.5625z"/>
 <path d="m70.148 6.25h-7.0703c-4.957 0.007812-9.1367 3.6992-9.7539 8.6172-2.2812 1.2383-3.625 3.6953-3.4414 6.2812h-27.113 0.003907c-3.1953 0.003906-5.7852 2.5898-5.7891 5.7852v41.215c0.003906 3.1914 2.5938 5.7812 5.7891 5.7852h37.734c3.1914-0.003906 5.7812-2.5938 5.7852-5.7852v-41.215c-0.019531-1.6719-0.74609-3.2539-2-4.3555-1.2539-1.1055-2.918-1.625-4.5742-1.4297 0.003906-1.5625-0.42578-3.0977-1.2383-4.4336-0.49609-0.75781-1.1875-1.3672-2.0039-1.7656 0.55469-3.2148 3.3359-5.5664 6.6016-5.5742h7.0703c5.375 0.007812 9.7344 4.3633 9.7422 9.7422v58.055c-0.007813 4.2656-3.1602 7.8711-7.3867 8.4453-1.2578-2.1172-3.582-3.375-6.043-3.2695 0-0.41406-0.16406-0.8125-0.45703-1.1055-0.29297-0.29297-0.69141-0.45703-1.1055-0.45703h-30.379c-0.49219 0.019532-0.95312 0.25781-1.2539 0.64844s-0.41406 0.89453-0.30859 1.375h-3.668c-0.86328 0-1.5625 0.69922-1.5625 1.5625v1.3359h-5.4453c-0.85547 0.011719-1.5391 0.70703-1.5391 1.5625 0 0.85156 0.68359 1.5469 1.5391 1.5625h5.4492v1.3359l-0.003907-0.003907c0 0.41406 0.16406 0.8125 0.45703 1.1055 0.29297 0.29297 0.69141 0.45703 1.1055 0.45703h3.668c-0.10547 0.48438 0.007813 0.98438 0.30859 1.375 0.30078 0.39063 0.76172 0.62891 1.2539 0.64844h30.379c0.86328 0 1.5625-0.69922 1.5625-1.5625 2.4805-0.089844 5.1562-1.1211 6.1094-3.4219 5.9336-0.62891 10.438-5.6289 10.445-11.594v-58.055c-0.011719-7.1016-5.7656-12.859-12.867-12.867zm-6.9805 20.684v41.215c0 1.4688-1.1914 2.6562-2.6602 2.6602h-37.734c-1.4688-0.003906-2.6602-1.1914-2.6641-2.6602v-41.215c0.003906-1.4688 1.1953-2.6602 2.6641-2.6602h37.734c1.4688 0 2.6602 1.1914 2.6602 2.6602zm-10.16-5.7852c0.16406-4.5586 3.4375-4.4922 3.582 0zm-22.156 67.453v-2.668h2.1055v2.668zm32.484 2.0234h-27.254v-6.7148h27.254zm5.668-2.2891h-0.003906c-0.76953 0.45312-1.6445 0.69922-2.5391 0.71484v-3.5664c1.625-0.058594 4.7539 1.3555 2.5391 2.8516z"/>
 <path d="m56.48 63.812h-29.5c-0.85156 0.015625-1.5352 0.71094-1.5352 1.5625s0.68359 1.5469 1.5352 1.5625h29.5c0.85156-0.015625 1.5312-0.71094 1.5312-1.5625s-0.67969-1.5469-1.5312-1.5625z"/>
 </svg>