<svg xmlns="http://www.w3.org/2000/svg" xmlns:xlink="http://www.w3.org/1999/xlink" version="1.0" x="0px" y="0px" viewBox="0 0 100 100" enable-background="new 0 0 100 100" xml:space="preserve"><path d="M20.398447,92.8836365c0.27981,0.1526184,0.5923252,0.2180328,0.8903046,0.2180328v0.0072632h57.375618  c0.3960953,0,0.7522202-0.112648,1.0502014-0.308876c13.03479-6.8680725,10.8108444-18.8199615,4.4478912-31.0952721  c-2.9725266-5.7233887-6.8498993-11.5012856-10.4147568-16.8031425c-5.2437134-7.8165169-9.7751846-14.5537643-9.2409973-17.6316757  l0.0363388-16.4542904h2.0749512c2.5800705,0,2.5800705-3.9246101,0-3.9246101H33.3460274  c-2.5800686,0-2.5800686,3.9246101,0,3.9246101h2.074955l0.0472412,16.5306034  C37.1943245,37.1032944-8.5746241,77.9192429,20.398447,92.8836365z M19.2719383,63.4890289  c2.8816814-5.5344238,6.6827393-11.2033081,10.1821823-16.4106827c5.6398125-8.3979378,10.5092354-15.6511993,9.8878365-20.2553482  V10.8156757h21.2801094V26.822998c-0.6286659,4.6041489,4.2516594,11.8574104,9.891468,20.2553482  c3.4885483,5.2073746,7.2968674,10.8762589,10.1676483,16.4106827c5.3490982,10.3130035,7.4349594,20.2589874-2.4928513,25.6989288  H21.7684269C11.8406162,83.7480164,13.9337416,73.8020325,19.2719383,63.4890289z"/></svg>